<?xml version="1.0" encoding="UTF-8"?><svg id="Layer_1" xmlns="http://www.w3.org/2000/svg" viewBox="0 0 416.01 695.4"><defs><style>.cls-1{fill:#fff;}</style></defs><path class="cls-1" d="M411.68,463.52c-14.47,12.18-25.63,21.83-33.48,28.96-23.56,21.42-39.89,38.42-48.98,51.01-14.47-12.59-25.01-25.39-31.62-38.41-2.9-5.44-8.06-19.71-15.5-42.81-18.6,13.23-35.45,26.35-50.53,39.37-15.09,13.02-30.07,25.94-44.95,38.75-13.64-7.03-37.41-20.87-71.3-41.54-26.87-16.12-42.58-24.18-47.12-24.18-7.86,0-14.37,1.66-19.53,4.96-5.17,3.31-7.75,9.72-7.75,19.22,0,3.31,1.55,7.44,4.65,12.4,3.1,4.96,4.65,9.1,4.65,12.4,0,6.2-1.14,11.05-3.41,14.57-2.28,3.51-6.51,5.27-12.71,5.27s-11.27-2.59-15.19-7.75c-3.93-5.16-5.89-11.88-5.89-20.15,0-9.09,10.12-29.34,30.38-60.76,6.2-9.5,24.38-35.75,54.56-78.74-25.63-26.5-39.48-41.01-41.54-43.49-21.08-26.1-31.62-59.44-31.62-100.03,0-35.2,16.53-68.55,49.6-100.03,34.72-33.13,74.19-49.71,118.42-49.71,31.82,0,59.52,5.67,83.08,16.98,7.85,3.78,23.56,12.79,47.12,27.04,9.92-16.53,24.8-28.72,44.64-36.58,6.61-2.48,15.91-4.96,27.9-7.44l1.24,2.48c-12.4,7.04-21.91,14.09-28.52,21.12-10.34,10.76-15.5,22.35-15.5,34.77V415.08c0,12.84,1.65,24.43,4.96,34.78,3.3,10.35,8.47,15.52,15.5,15.52,11.57,0,22.11-3.72,31.62-11.16l6.82,9.3ZM247.38,159.43c-5.79-7.53-15.81-13.8-30.07-18.83-14.26-5.02-28.63-7.54-43.09-7.54-28.11,0-55.6,11.2-82.46,33.58-28.94,24.04-43.4,50.58-43.4,79.59,0,23.22,4.45,44.37,13.34,63.43s24.32,36.27,46.25,51.6l92.37-133.93c-4.56-3.72-8.9-7.45-13.03-11.19-4.55-2.9-10.55-4.35-17.99-4.35-20.68,0-38.27,11.37-52.74,34.1-.42-1.65-.62-4.34-.62-8.06,0-15.29,6.3-29.45,18.91-42.47,12.6-13.02,28.21-19.53,46.81-19.53,15.29,0,24.18,.21,26.66,.62,6.61,2.07,14.05,3.93,22.32,5.58l16.74-22.61Zm32.86,285.49v-57.66H115.32l-23.56,33.5,137.64,63.22,50.84-39.06Zm0-104.16V190.72l-16.12-19.84-117.18,169.88h133.3Z"/></svg>